<svg xmlns="http://www.w3.org/2000/svg" viewBox="0 0 960 860" width="960" height="860" font-family="Segoe Print, Bradley Hand, Comic Sans MS, Comic Neue, cursive">
  <title>Figura 13 — Pruebas de falla inducidas</title>
  <desc>Cuatro fallas inducidas a propósito. Las zonas con enlaces redundantes mantienen el servicio; la zona con un solo enlace queda aislada.</desc>
  <style>
    .t   { font-size: 20px; fill: #212529; }
    .h   { font-size: 15px; font-weight: bold; fill: #212529; }
    .sub { font-size: 12.5px; fill: #868e96; }
    .lbl { font-size: 12px; fill: #495057; }
    .swt { font-size: 12.5px; font-weight: bold; fill: #212529; }
    .red { font-size: 12.5px; font-weight: bold; fill: #c92a2a; }
    .grn { font-size: 12.5px; font-weight: bold; fill: #2f9e44; }
  </style>
  <rect width="960" height="860" fill="#ffffff"/>
  <text x="480" y="32" class="t" text-anchor="middle">Qué pasa cuando se corta un enlace</text>
  <text x="245.0" y="74" class="h" text-anchor="middle">1 · Cae un miembro de Po1</text>
  <line x1="247.2" y1="188.0" x2="153.6" y2="268.6" stroke="#2f9e44" stroke-width="4.0" stroke-linecap="round"/>
  <line x1="242.8" y1="182.8" x2="149.2" y2="263.4" stroke="#2f9e44" stroke-width="4.0" stroke-linecap="round"/>
  <line x1="247.2" y1="182.8" x2="340.8" y2="263.4" stroke="#ced4da" stroke-width="1.8" stroke-linecap="round"/>
  <line x1="242.8" y1="188.0" x2="336.4" y2="268.6" stroke="#ced4da" stroke-width="1.8" stroke-linecap="round"/>
  <line x1="151.4" y1="266.0" x2="338.6" y2="266.0" stroke="#ced4da" stroke-width="1.8" stroke-linecap="round"/>
  <line x1="245.0" y1="185.4" x2="94.2" y2="162.0" stroke="#ced4da" stroke-width="1.8" stroke-linecap="round"/>
  <line x1="151.4" y1="266.0" x2="94.2" y2="162.0" stroke="#ced4da" stroke-width="1.8" stroke-linecap="round"/>
  <line x1="245.0" y1="185.4" x2="395.8" y2="162.0" stroke="#ced4da" stroke-width="1.8" stroke-linecap="round"/>
  <line x1="245.0" y1="185.4" x2="245.0" y2="115.2" stroke="#ced4da" stroke-width="1.8" stroke-linecap="round"/>
  <line x1="151.4" y1="266.0" x2="89.0" y2="351.8" stroke="#2f9e44" stroke-width="4.0" stroke-linecap="round"/>
  <line x1="151.4" y1="266.0" x2="203.4" y2="351.8" stroke="#ced4da" stroke-width="1.8" stroke-linecap="round"/>
  <line x1="89.0" y1="351.8" x2="203.4" y2="351.8" stroke="#ced4da" stroke-width="1.8" stroke-linecap="round"/>
  <line x1="338.6" y1="266.0" x2="286.6" y2="351.8" stroke="#ced4da" stroke-width="1.8" stroke-linecap="round"/>
  <line x1="338.6" y1="266.0" x2="401.0" y2="351.8" stroke="#ced4da" stroke-width="1.8" stroke-linecap="round"/>
  <rect x="207.3" y="171.1" width="75.4" height="28.6" rx="5" fill="#f8f9fa" stroke="#868e96" stroke-width="1.6"/>
  <text x="245.0" y="190.1" text-anchor="middle" font-size="12.5" font-weight="bold" fill="#343a40">EMPRES.</text>
  <rect x="225.5" y="100.9" width="39.0" height="28.6" rx="5" fill="#f8f9fa" stroke="#868e96" stroke-width="1.6"/>
  <text x="245.0" y="119.9" text-anchor="middle" font-size="12.5" font-weight="bold" fill="#343a40">A1</text>
  <rect x="56.5" y="147.7" width="75.4" height="28.6" rx="5" fill="#f8f9fa" stroke="#868e96" stroke-width="1.6"/>
  <text x="94.2" y="166.7" text-anchor="middle" font-size="12.5" font-weight="bold" fill="#343a40">DECIMO</text>
  <rect x="358.1" y="147.7" width="75.4" height="28.6" rx="5" fill="#f8f9fa" stroke="#868e96" stroke-width="1.6"/>
  <text x="395.8" y="166.7" text-anchor="middle" font-size="12.5" font-weight="bold" fill="#343a40">ENCINOS</text>
  <rect x="113.7" y="251.7" width="75.4" height="28.6" rx="5" fill="#f8f9fa" stroke="#868e96" stroke-width="1.6"/>
  <text x="151.4" y="270.7" text-anchor="middle" font-size="12.5" font-weight="bold" fill="#343a40">PASEO</text>
  <rect x="300.9" y="251.7" width="75.4" height="28.6" rx="5" fill="#f8f9fa" stroke="#868e96" stroke-width="1.6"/>
  <text x="338.6" y="270.7" text-anchor="middle" font-size="12.5" font-weight="bold" fill="#343a40">MODA</text>
  <rect x="69.5" y="337.5" width="39.0" height="28.6" rx="5" fill="#f8f9fa" stroke="#868e96" stroke-width="1.6"/>
  <text x="89.0" y="356.5" text-anchor="middle" font-size="12.5" font-weight="bold" fill="#343a40">A1</text>
  <rect x="183.9" y="337.5" width="39.0" height="28.6" rx="5" fill="#f8f9fa" stroke="#868e96" stroke-width="1.6"/>
  <text x="203.4" y="356.5" text-anchor="middle" font-size="12.5" font-weight="bold" fill="#343a40">A2</text>
  <rect x="267.1" y="337.5" width="39.0" height="28.6" rx="5" fill="#f8f9fa" stroke="#868e96" stroke-width="1.6"/>
  <text x="286.6" y="356.5" text-anchor="middle" font-size="12.5" font-weight="bold" fill="#343a40">A1</text>
  <rect x="381.5" y="337.5" width="39.0" height="28.6" rx="5" fill="#f8f9fa" stroke="#868e96" stroke-width="1.6"/>
  <text x="401.0" y="356.5" text-anchor="middle" font-size="12.5" font-weight="bold" fill="#343a40">A2</text>
  <line x1="224.7" y1="207.3" x2="177.9" y2="247.6" stroke="#ffffff" stroke-width="5"/>
  <line x1="224.7" y1="207.3" x2="177.9" y2="247.6" stroke="#e03131" stroke-width="2.4" stroke-dasharray="6 5"/>
  <g stroke="#e03131" stroke-width="3.2" stroke-linecap="round"><line x1="193.3" y1="219.5" x2="209.3" y2="235.5"/><line x1="193.3" y1="235.5" x2="209.3" y2="219.5"/></g>
  <text x="245" y="396" class="grn" text-anchor="middle" font-size="14">Ping zona 1 → zona 2: 4/4</text>
  <text x="245" y="416" class="sub" text-anchor="middle">El canal sigue arriba con el otro miembro.</text>
  <text x="245" y="433" class="sub" text-anchor="middle">STP no se entera: ve un solo enlace lógico.</text>
  <text x="715.0" y="74" class="h" text-anchor="middle">2 · Cae Po1 completo</text>
  <line x1="717.2" y1="188.0" x2="623.6" y2="268.6" stroke="#e03131" stroke-width="2.4" stroke-linecap="round" stroke-dasharray="6 5"/>
  <line x1="712.8" y1="182.8" x2="619.2" y2="263.4" stroke="#e03131" stroke-width="2.4" stroke-linecap="round" stroke-dasharray="6 5"/>
  <line x1="717.2" y1="182.8" x2="810.8" y2="263.4" stroke="#2f9e44" stroke-width="4.0" stroke-linecap="round"/>
  <line x1="712.8" y1="188.0" x2="806.4" y2="268.6" stroke="#2f9e44" stroke-width="4.0" stroke-linecap="round"/>
  <line x1="621.4" y1="266.0" x2="808.6" y2="266.0" stroke="#2f9e44" stroke-width="4.0" stroke-linecap="round"/>
  <line x1="715.0" y1="185.4" x2="564.2" y2="162.0" stroke="#ced4da" stroke-width="1.8" stroke-linecap="round"/>
  <line x1="621.4" y1="266.0" x2="564.2" y2="162.0" stroke="#ced4da" stroke-width="1.8" stroke-linecap="round"/>
  <line x1="715.0" y1="185.4" x2="865.8" y2="162.0" stroke="#ced4da" stroke-width="1.8" stroke-linecap="round"/>
  <line x1="715.0" y1="185.4" x2="715.0" y2="115.2" stroke="#ced4da" stroke-width="1.8" stroke-linecap="round"/>
  <line x1="621.4" y1="266.0" x2="559.0" y2="351.8" stroke="#2f9e44" stroke-width="4.0" stroke-linecap="round"/>
  <line x1="621.4" y1="266.0" x2="673.4" y2="351.8" stroke="#ced4da" stroke-width="1.8" stroke-linecap="round"/>
  <line x1="559.0" y1="351.8" x2="673.4" y2="351.8" stroke="#ced4da" stroke-width="1.8" stroke-linecap="round"/>
  <line x1="808.6" y1="266.0" x2="756.6" y2="351.8" stroke="#ced4da" stroke-width="1.8" stroke-linecap="round"/>
  <line x1="808.6" y1="266.0" x2="871.0" y2="351.8" stroke="#ced4da" stroke-width="1.8" stroke-linecap="round"/>
  <rect x="677.3" y="171.1" width="75.4" height="28.6" rx="5" fill="#f8f9fa" stroke="#868e96" stroke-width="1.6"/>
  <text x="715.0" y="190.1" text-anchor="middle" font-size="12.5" font-weight="bold" fill="#343a40">EMPRES.</text>
  <rect x="695.5" y="100.9" width="39.0" height="28.6" rx="5" fill="#f8f9fa" stroke="#868e96" stroke-width="1.6"/>
  <text x="715.0" y="119.9" text-anchor="middle" font-size="12.5" font-weight="bold" fill="#343a40">A1</text>
  <rect x="526.5" y="147.7" width="75.4" height="28.6" rx="5" fill="#f8f9fa" stroke="#868e96" stroke-width="1.6"/>
  <text x="564.2" y="166.7" text-anchor="middle" font-size="12.5" font-weight="bold" fill="#343a40">DECIMO</text>
  <rect x="828.1" y="147.7" width="75.4" height="28.6" rx="5" fill="#f8f9fa" stroke="#868e96" stroke-width="1.6"/>
  <text x="865.8" y="166.7" text-anchor="middle" font-size="12.5" font-weight="bold" fill="#343a40">ENCINOS</text>
  <rect x="583.7" y="251.7" width="75.4" height="28.6" rx="5" fill="#f8f9fa" stroke="#868e96" stroke-width="1.6"/>
  <text x="621.4" y="270.7" text-anchor="middle" font-size="12.5" font-weight="bold" fill="#343a40">PASEO</text>
  <rect x="770.9" y="251.7" width="75.4" height="28.6" rx="5" fill="#f8f9fa" stroke="#868e96" stroke-width="1.6"/>
  <text x="808.6" y="270.7" text-anchor="middle" font-size="12.5" font-weight="bold" fill="#343a40">MODA</text>
  <rect x="539.5" y="337.5" width="39.0" height="28.6" rx="5" fill="#f8f9fa" stroke="#868e96" stroke-width="1.6"/>
  <text x="559.0" y="356.5" text-anchor="middle" font-size="12.5" font-weight="bold" fill="#343a40">A1</text>
  <rect x="653.9" y="337.5" width="39.0" height="28.6" rx="5" fill="#f8f9fa" stroke="#868e96" stroke-width="1.6"/>
  <text x="673.4" y="356.5" text-anchor="middle" font-size="12.5" font-weight="bold" fill="#343a40">A2</text>
  <rect x="737.1" y="337.5" width="39.0" height="28.6" rx="5" fill="#f8f9fa" stroke="#868e96" stroke-width="1.6"/>
  <text x="756.6" y="356.5" text-anchor="middle" font-size="12.5" font-weight="bold" fill="#343a40">A1</text>
  <rect x="851.5" y="337.5" width="39.0" height="28.6" rx="5" fill="#f8f9fa" stroke="#868e96" stroke-width="1.6"/>
  <text x="871.0" y="356.5" text-anchor="middle" font-size="12.5" font-weight="bold" fill="#343a40">A2</text>
  <g stroke="#e03131" stroke-width="3.2" stroke-linecap="round"><line x1="659.2" y1="216.7" x2="677.2" y2="234.7"/><line x1="659.2" y1="234.7" x2="677.2" y2="216.7"/></g>
  <text x="715" y="396" class="grn" text-anchor="middle" font-size="14">Ping zona 1 → zona 2: 3/4, luego 4/4</text>
  <text x="715" y="416" class="sub" text-anchor="middle">La VLAN 14 sale por SW-MODA y Po2.</text>
  <text x="715" y="433" class="sub" text-anchor="middle">Rapid PVST+ reconverge: un paquete perdido.</text>
  <text x="245.0" y="490" class="h" text-anchor="middle">3 · Cae un enlace de la zona 3</text>
  <line x1="247.2" y1="604.0" x2="153.6" y2="684.6" stroke="#2f9e44" stroke-width="4.0" stroke-linecap="round"/>
  <line x1="242.8" y1="598.8" x2="149.2" y2="679.4" stroke="#2f9e44" stroke-width="4.0" stroke-linecap="round"/>
  <line x1="247.2" y1="598.8" x2="340.8" y2="679.4" stroke="#ced4da" stroke-width="1.8" stroke-linecap="round"/>
  <line x1="242.8" y1="604.0" x2="336.4" y2="684.6" stroke="#ced4da" stroke-width="1.8" stroke-linecap="round"/>
  <line x1="151.4" y1="682.0" x2="338.6" y2="682.0" stroke="#ced4da" stroke-width="1.8" stroke-linecap="round"/>
  <line x1="245.0" y1="601.4" x2="94.2" y2="578.0" stroke="#e03131" stroke-width="2.4" stroke-linecap="round" stroke-dasharray="6 5"/>
  <line x1="151.4" y1="682.0" x2="94.2" y2="578.0" stroke="#2f9e44" stroke-width="4.0" stroke-linecap="round"/>
  <line x1="245.0" y1="601.4" x2="395.8" y2="578.0" stroke="#ced4da" stroke-width="1.8" stroke-linecap="round"/>
  <line x1="245.0" y1="601.4" x2="245.0" y2="531.2" stroke="#ced4da" stroke-width="1.8" stroke-linecap="round"/>
  <line x1="151.4" y1="682.0" x2="89.0" y2="767.8" stroke="#ced4da" stroke-width="1.8" stroke-linecap="round"/>
  <line x1="151.4" y1="682.0" x2="203.4" y2="767.8" stroke="#ced4da" stroke-width="1.8" stroke-linecap="round"/>
  <line x1="89.0" y1="767.8" x2="203.4" y2="767.8" stroke="#ced4da" stroke-width="1.8" stroke-linecap="round"/>
  <line x1="338.6" y1="682.0" x2="286.6" y2="767.8" stroke="#ced4da" stroke-width="1.8" stroke-linecap="round"/>
  <line x1="338.6" y1="682.0" x2="401.0" y2="767.8" stroke="#ced4da" stroke-width="1.8" stroke-linecap="round"/>
  <rect x="207.3" y="587.1" width="75.4" height="28.6" rx="5" fill="#f8f9fa" stroke="#868e96" stroke-width="1.6"/>
  <text x="245.0" y="606.1" text-anchor="middle" font-size="12.5" font-weight="bold" fill="#343a40">EMPRES.</text>
  <rect x="225.5" y="516.9" width="39.0" height="28.6" rx="5" fill="#f8f9fa" stroke="#868e96" stroke-width="1.6"/>
  <text x="245.0" y="535.9" text-anchor="middle" font-size="12.5" font-weight="bold" fill="#343a40">A1</text>
  <rect x="56.5" y="563.7" width="75.4" height="28.6" rx="5" fill="#f8f9fa" stroke="#868e96" stroke-width="1.6"/>
  <text x="94.2" y="582.7" text-anchor="middle" font-size="12.5" font-weight="bold" fill="#343a40">DECIMO</text>
  <rect x="358.1" y="563.7" width="75.4" height="28.6" rx="5" fill="#f8f9fa" stroke="#868e96" stroke-width="1.6"/>
  <text x="395.8" y="582.7" text-anchor="middle" font-size="12.5" font-weight="bold" fill="#343a40">ENCINOS</text>
  <rect x="113.7" y="667.7" width="75.4" height="28.6" rx="5" fill="#f8f9fa" stroke="#868e96" stroke-width="1.6"/>
  <text x="151.4" y="686.7" text-anchor="middle" font-size="12.5" font-weight="bold" fill="#343a40">PASEO</text>
  <rect x="300.9" y="667.7" width="75.4" height="28.6" rx="5" fill="#f8f9fa" stroke="#868e96" stroke-width="1.6"/>
  <text x="338.6" y="686.7" text-anchor="middle" font-size="12.5" font-weight="bold" fill="#343a40">MODA</text>
  <rect x="69.5" y="753.5" width="39.0" height="28.6" rx="5" fill="#f8f9fa" stroke="#868e96" stroke-width="1.6"/>
  <text x="89.0" y="772.5" text-anchor="middle" font-size="12.5" font-weight="bold" fill="#343a40">A1</text>
  <rect x="183.9" y="753.5" width="39.0" height="28.6" rx="5" fill="#f8f9fa" stroke="#868e96" stroke-width="1.6"/>
  <text x="203.4" y="772.5" text-anchor="middle" font-size="12.5" font-weight="bold" fill="#343a40">A2</text>
  <rect x="267.1" y="753.5" width="39.0" height="28.6" rx="5" fill="#f8f9fa" stroke="#868e96" stroke-width="1.6"/>
  <text x="286.6" y="772.5" text-anchor="middle" font-size="12.5" font-weight="bold" fill="#343a40">A1</text>
  <rect x="381.5" y="753.5" width="39.0" height="28.6" rx="5" fill="#f8f9fa" stroke="#868e96" stroke-width="1.6"/>
  <text x="401.0" y="772.5" text-anchor="middle" font-size="12.5" font-weight="bold" fill="#343a40">A2</text>
  <g stroke="#e03131" stroke-width="3.2" stroke-linecap="round"><line x1="160.6" y1="580.7" x2="178.6" y2="598.7"/><line x1="160.6" y1="598.7" x2="178.6" y2="580.7"/></g>
  <text x="245" y="812" class="grn" text-anchor="middle" font-size="14">Ping zona 3 → zona 2: 3/4, luego 4/4</text>
  <text x="245" y="832" class="sub" text-anchor="middle">La zona 3 sale por su segundo enlace,</text>
  <text x="245" y="849" class="sub" text-anchor="middle">que termina en otro switch.</text>
  <text x="715.0" y="490" class="h" text-anchor="middle">4 · Cae el enlace de la zona 5</text>
  <line x1="717.2" y1="604.0" x2="623.6" y2="684.6" stroke="#ced4da" stroke-width="1.8" stroke-linecap="round"/>
  <line x1="712.8" y1="598.8" x2="619.2" y2="679.4" stroke="#ced4da" stroke-width="1.8" stroke-linecap="round"/>
  <line x1="717.2" y1="598.8" x2="810.8" y2="679.4" stroke="#ced4da" stroke-width="1.8" stroke-linecap="round"/>
  <line x1="712.8" y1="604.0" x2="806.4" y2="684.6" stroke="#ced4da" stroke-width="1.8" stroke-linecap="round"/>
  <line x1="621.4" y1="682.0" x2="808.6" y2="682.0" stroke="#ced4da" stroke-width="1.8" stroke-linecap="round"/>
  <line x1="715.0" y1="601.4" x2="564.2" y2="578.0" stroke="#ced4da" stroke-width="1.8" stroke-linecap="round"/>
  <line x1="621.4" y1="682.0" x2="564.2" y2="578.0" stroke="#ced4da" stroke-width="1.8" stroke-linecap="round"/>
  <line x1="715.0" y1="601.4" x2="865.8" y2="578.0" stroke="#e03131" stroke-width="2.4" stroke-linecap="round" stroke-dasharray="6 5"/>
  <line x1="715.0" y1="601.4" x2="715.0" y2="531.2" stroke="#ced4da" stroke-width="1.8" stroke-linecap="round"/>
  <line x1="621.4" y1="682.0" x2="559.0" y2="767.8" stroke="#ced4da" stroke-width="1.8" stroke-linecap="round"/>
  <line x1="621.4" y1="682.0" x2="673.4" y2="767.8" stroke="#ced4da" stroke-width="1.8" stroke-linecap="round"/>
  <line x1="559.0" y1="767.8" x2="673.4" y2="767.8" stroke="#ced4da" stroke-width="1.8" stroke-linecap="round"/>
  <line x1="808.6" y1="682.0" x2="756.6" y2="767.8" stroke="#ced4da" stroke-width="1.8" stroke-linecap="round"/>
  <line x1="808.6" y1="682.0" x2="871.0" y2="767.8" stroke="#ced4da" stroke-width="1.8" stroke-linecap="round"/>
  <rect x="677.3" y="587.1" width="75.4" height="28.6" rx="5" fill="#f8f9fa" stroke="#868e96" stroke-width="1.6"/>
  <text x="715.0" y="606.1" text-anchor="middle" font-size="12.5" font-weight="bold" fill="#343a40">EMPRES.</text>
  <rect x="695.5" y="516.9" width="39.0" height="28.6" rx="5" fill="#f8f9fa" stroke="#868e96" stroke-width="1.6"/>
  <text x="715.0" y="535.9" text-anchor="middle" font-size="12.5" font-weight="bold" fill="#343a40">A1</text>
  <rect x="526.5" y="563.7" width="75.4" height="28.6" rx="5" fill="#f8f9fa" stroke="#868e96" stroke-width="1.6"/>
  <text x="564.2" y="582.7" text-anchor="middle" font-size="12.5" font-weight="bold" fill="#343a40">DECIMO</text>
  <rect x="828.1" y="563.7" width="75.4" height="28.6" rx="5" fill="#f8f9fa" stroke="#868e96" stroke-width="1.6"/>
  <text x="865.8" y="582.7" text-anchor="middle" font-size="12.5" font-weight="bold" fill="#343a40">ENCINOS</text>
  <rect x="583.7" y="667.7" width="75.4" height="28.6" rx="5" fill="#f8f9fa" stroke="#868e96" stroke-width="1.6"/>
  <text x="621.4" y="686.7" text-anchor="middle" font-size="12.5" font-weight="bold" fill="#343a40">PASEO</text>
  <rect x="770.9" y="667.7" width="75.4" height="28.6" rx="5" fill="#f8f9fa" stroke="#868e96" stroke-width="1.6"/>
  <text x="808.6" y="686.7" text-anchor="middle" font-size="12.5" font-weight="bold" fill="#343a40">MODA</text>
  <rect x="539.5" y="753.5" width="39.0" height="28.6" rx="5" fill="#f8f9fa" stroke="#868e96" stroke-width="1.6"/>
  <text x="559.0" y="772.5" text-anchor="middle" font-size="12.5" font-weight="bold" fill="#343a40">A1</text>
  <rect x="653.9" y="753.5" width="39.0" height="28.6" rx="5" fill="#f8f9fa" stroke="#868e96" stroke-width="1.6"/>
  <text x="673.4" y="772.5" text-anchor="middle" font-size="12.5" font-weight="bold" fill="#343a40">A2</text>
  <rect x="737.1" y="753.5" width="39.0" height="28.6" rx="5" fill="#f8f9fa" stroke="#868e96" stroke-width="1.6"/>
  <text x="756.6" y="772.5" text-anchor="middle" font-size="12.5" font-weight="bold" fill="#343a40">A1</text>
  <rect x="851.5" y="753.5" width="39.0" height="28.6" rx="5" fill="#f8f9fa" stroke="#868e96" stroke-width="1.6"/>
  <text x="871.0" y="772.5" text-anchor="middle" font-size="12.5" font-weight="bold" fill="#343a40">A2</text>
  <g stroke="#e03131" stroke-width="3.2" stroke-linecap="round"><line x1="781.4" y1="580.7" x2="799.4" y2="598.7"/><line x1="781.4" y1="598.7" x2="799.4" y2="580.7"/></g>
  <text x="715" y="812" class="red" text-anchor="middle" font-size="14">Ping zona 5 → zona 2: 0/4 · dentro de la zona: 4/4</text>
  <text x="715" y="832" class="sub" text-anchor="middle">No hay camino alterno: es la única zona</text>
  <text x="715" y="849" class="sub" text-anchor="middle">que se dejó con un solo enlace.</text>
  <line x1="480" y1="60" x2="480" y2="840" stroke="#dee2e6" stroke-width="1.5" stroke-dasharray="7 6"/>
  <line x1="40" y1="462" x2="920" y2="462" stroke="#dee2e6" stroke-width="1.5" stroke-dasharray="7 6"/>
</svg>
